ffmpeg version 3.4.8-0ubuntu0.2 Copyright (c) 2000-2020 the FFmpeg developers
  built with gcc 7 (Ubuntu 7.5.0-3ubuntu1~18.04)
  configuration: --prefix=/usr --extra-version=0ubuntu0.2 --toolchain=hardened --libdir=/usr/lib/x86_64-linux-gnu --incdir=/usr/include/x86_64-linux-gnu --enable-gpl --disable-stripping --enable-avresample --enable-avisynth --enable-gnutls --enable-ladspa --enable-libass --enable-libbluray --enable-libbs2b --enable-libcaca --enable-libcdio --enable-libflite --enable-libfontconfig --enable-libfreetype --enable-libfribidi --enable-libgme --enable-libgsm --enable-libmp3lame --enable-libmysofa --enable-libopenjpeg --enable-libopenmpt --enable-libopus --enable-libpulse --enable-librubberband --enable-librsvg --enable-libshine --enable-libsnappy --enable-libsoxr --enable-libspeex --enable-libssh --enable-libtheora --enable-libtwolame --enable-libvorbis --enable-libvpx --enable-libwavpack --enable-libwebp --enable-libx265 --enable-libxml2 --enable-libxvid --enable-libzmq --enable-libzvbi --enable-omx --enable-openal --enable-opengl --enable-sdl2 --enable-libdc1394 --enable-libdrm --enable-libiec61883 --enable-chromaprint --enable-frei0r --enable-libopencv --enable-libx264 --enable-shared
  libavutil      55. 78.100 / 55. 78.100
  libavcodec     57.107.100 / 57.107.100
  libavformat    57. 83.100 / 57. 83.100
  libavdevice    57. 10.100 / 57. 10.100
  libavfilter     6.107.100 /  6.107.100
  libavresample   3.  7.  0 /  3.  7.  0
  libswscale      4.  8.100 /  4.  8.100
  libswresample   2.  9.100 /  2.  9.100
  libpostproc    54.  7.100 / 54.  7.100
Input #0, yuv4mpegpipe, from '../.././Samples/Netflix_Boat_4096x2160_60fps_10bit_420.y4m':
  Duration: 00:00:05.00, start: 0.000000, bitrate: 12740201 kb/s
    Stream #0:0: Video: rawvideo (Y3[11][10] / 0xA0B3359), yuv420p10le(progressive), 4096x2160, SAR 1:1 DAR 256:135, 60 fps, 60 tbr, 60 tbn, 60 tbc
Stream mapping:
  Stream #0:0 -> #0:0 (rawvideo (native) -> h264 (libx264))
Press [q] to stop, [?] for help
[libx264 @ 0x55dc41899900] using SAR=1/1
[libx264 @ 0x55dc41899900] using cpu capabilities: MMX2 SSE2Fast SSSE3 SSE4.2 AVX FMA3 BMI2 AVX2
[libx264 @ 0x55dc41899900] profile High, level 5.2
[libx264 @ 0x55dc41899900] 264 - core 152 r2854 e9a5903 - H.264/MPEG-4 AVC codec - Copyleft 2003-2017 - http://www.videolan.org/x264.html - options: cabac=1 ref=3 deblock=1:0:0 analyse=0x3:0x113 me=hex subme=7 psy=1 psy_rd=1.00:0.00 mixed_ref=1 me_range=16 chroma_me=1 trellis=1 8x8dct=1 cqm=0 deadzone=21,11 fast_pskip=1 chroma_qp_offset=-2 threads=6 lookahead_threads=1 sliced_threads=0 nr=0 decimate=1 interlaced=0 bluray_compat=0 constrained_intra=0 bframes=3 b_pyramid=2 b_adapt=1 b_bias=0 direct=1 weightb=1 open_gop=0 weightp=2 keyint=250 keyint_min=25 scenecut=40 intra_refresh=0 rc_lookahead=40 rc=crf mbtree=1 crf=23.0 qcomp=0.60 qpmin=0 qpmax=69 qpstep=4 ip_ratio=1.40 aq=1:1.00
Output #0, mov, to '/home/aleksandr/Pract/Samples/Netflix_Boat_4096x2160_60fps_10bit_420.y4m_tc/output_tc2.mov':
  Metadata:
    encoder         : Lavf57.83.100
    Stream #0:0: Video: h264 (libx264) (avc1 / 0x31637661), yuv420p, 4096x2160 [SAR 1:1 DAR 256:135], q=-1--1, 60 fps, 15360 tbn, 60 tbc
    Metadata:
      encoder         : Lavc57.107.100 libx264
    Side data:
      cpb: bitrate max/min/avg: 0/0/0 buffer size: 0 vbv_delay: -1
frame=    4 fps=0.0 q=0.0 size=       0kB time=00:00:00.00 bitrate=N/A speed=   0x    frame=    6 fps=4.5 q=0.0 size=       0kB time=00:00:00.00 bitrate=N/A speed=   0x    frame=    9 fps=4.5 q=0.0 size=       0kB time=00:00:00.00 bitrate=N/A speed=   0x    frame=   12 fps=4.5 q=0.0 size=       0kB time=00:00:00.00 bitrate=N/A speed=   0x    frame=   15 fps=4.5 q=0.0 size=       0kB time=00:00:00.00 bitrate=N/A speed=   0x    frame=   18 fps=4.5 q=0.0 size=       0kB time=00:00:00.00 bitrate=N/A speed=   0x    frame=   20 fps=4.4 q=0.0 size=       0kB time=00:00:00.00 bitrate=N/A speed=   0x    frame=   23 fps=4.4 q=0.0 size=       0kB time=00:00:00.00 bitrate=N/A speed=   0x    frame=   26 fps=4.4 q=0.0 size=       0kB time=00:00:00.00 bitrate=N/A speed=   0x    frame=   29 fps=4.5 q=0.0 size=       0kB time=00:00:00.00 bitrate=N/A speed=   0x    frame=   31 fps=4.4 q=0.0 size=       0kB time=00:00:00.00 bitrate=N/A speed=   0x    frame=   34 fps=4.4 q=0.0 size=       0kB time=00:00:00.00 bitrate=N/A speed=   0x    frame=   37 fps=4.4 q=0.0 size=       0kB time=00:00:00.00 bitrate=N/A speed=   0x    frame=   39 fps=4.4 q=0.0 size=       0kB time=00:00:00.00 bitrate=N/A speed=   0x    frame=   41 fps=4.3 q=0.0 size=       0kB time=00:00:00.00 bitrate=N/A speed=   0x    frame=   44 fps=4.4 q=0.0 size=       0kB time=00:00:00.00 bitrate=N/A speed=   0x    frame=   47 fps=3.9 q=0.0 size=       0kB time=00:00:00.00 bitrate=N/A speed=   0x    frame=   49 fps=3.9 q=0.0 size=       0kB time=00:00:00.00 bitrate=N/A speed=   0x    frame=   52 fps=3.9 q=31.0 size=     768kB time=-00:00:00.01 bitrate=N/A speed=N/A    frame=   55 fps=3.9 q=31.0 size=     768kB time=00:00:00.03 bitrate=188386.8kbits/s speed=0.00239x    frame=   58 fps=4.0 q=31.0 size=    1024kB time=00:00:00.08 bitrate=100588.7kbits/s speed=0.00572x    frame=   61 fps=4.0 q=31.0 size=    1280kB time=00:00:00.13 bitrate=78607.2kbits/s speed=0.00879x    frame=   64 fps=4.1 q=31.0 size=    1536kB time=00:00:00.18 bitrate=68611.4kbits/s speed=0.0116x    frame=   67 fps=4.1 q=31.0 size=    1536kB time=00:00:00.23 bitrate=53913.1kbits/s speed=0.0143x    frame=   70 fps=4.1 q=31.0 size=    1792kB time=00:00:00.28 bitrate=51801.2kbits/s speed=0.0167x    frame=   73 fps=4.2 q=31.0 size=    2048kB time=00:00:00.33 bitrate=50322.7kbits/s speed=0.019x    frame=   76 fps=4.2 q=31.0 size=    2304kB time=00:00:00.38 bitrate=49229.9kbits/s speed=0.0211x    frame=   79 fps=4.2 q=31.0 size=    2304kB time=00:00:00.43 bitrate=43550.4kbits/s speed=0.023x    frame=   82 fps=4.2 q=31.0 size=    2560kB time=00:00:00.48 bitrate=43384.1kbits/s speed=0.0249x    frame=   85 fps=4.2 q=31.0 size=    2816kB time=00:00:00.53 bitrate=43249.1kbits/s speed=0.0266x    frame=   88 fps=4.3 q=31.0 size=    3072kB time=00:00:00.58 bitrate=43137.1kbits/s speed=0.0283x    frame=   91 fps=4.3 q=31.0 size=    3072kB time=00:00:00.63 bitrate=39731.9kbits/s speed=0.0298x    frame=   94 fps=4.3 q=31.0 size=    3328kB time=00:00:00.68 bitrate=39893.7kbits/s speed=0.0313x    frame=   97 fps=4.3 q=31.0 size=    3584kB time=00:00:00.73 bitrate=40033.4kbits/s speed=0.0327x    frame=  100 fps=4.3 q=31.0 size=    3840kB time=00:00:00.78 bitrate=40155.3kbits/s speed=0.034x    frame=  103 fps=4.4 q=31.0 size=    3840kB time=00:00:00.83 bitrate=37746.2kbits/s speed=0.0353x    frame=  106 fps=4.4 q=31.0 size=    4096kB time=00:00:00.88 bitrate=37983.7kbits/s speed=0.0364x    frame=  109 fps=4.4 q=31.0 size=    4352kB time=00:00:00.93 bitrate=38195.8kbits/s speed=0.0375x    frame=  112 fps=4.4 q=31.0 size=    4608kB time=00:00:00.98 bitrate=38386.3kbits/s speed=0.0386x    frame=  115 fps=4.4 q=31.0 size=    4608kB time=00:00:01.03 bitrate=36529.0kbits/s speed=0.0396x    frame=  118 fps=4.4 q=31.0 size=    4864kB time=00:00:01.08 bitrate=36778.9kbits/s speed=0.0407x    frame=  121 fps=4.4 q=31.0 size=    5120kB time=00:00:01.13 bitrate=37006.7kbits/s speed=0.0416x    frame=  124 fps=4.5 q=31.0 size=    5376kB time=00:00:01.18 bitrate=37215.3kbits/s speed=0.0425x    frame=  127 fps=4.5 q=31.0 size=    5376kB time=00:00:01.23 bitrate=35706.6kbits/s speed=0.0434x    frame=  130 fps=4.5 q=31.0 size=    5632kB time=00:00:01.28 bitrate=35949.6kbits/s speed=0.0442x    frame=  132 fps=4.5 q=31.0 size=    5888kB time=00:00:01.31 bitrate=36632.2kbits/s speed=0.0446x    frame=  135 fps=4.5 q=31.0 size=    5888kB time=00:00:01.36 bitrate=35292.1kbits/s speed=0.0454x    frame=  138 fps=4.5 q=31.0 size=    6144kB time=00:00:01.41 bitrate=35526.8kbits/s speed=0.0461x    frame=  141 fps=4.5 q=31.0 size=    6400kB time=00:00:01.46 bitrate=35745.5kbits/s speed=0.0469x    frame=  144 fps=4.5 q=31.0 size=    6656kB time=00:00:01.51 bitrate=35949.8kbits/s speed=0.0476x    frame=  147 fps=4.5 q=31.0 size=    6656kB time=00:00:01.56 bitrate=34802.5kbits/s speed=0.0482x    frame=  150 fps=4.5 q=31.0 size=    6912kB time=00:00:01.61 bitrate=35023.4kbits/s speed=0.0488x    frame=  153 fps=4.5 q=31.0 size=    7168kB time=00:00:01.66 bitrate=35230.9kbits/s speed=0.0495x    frame=  156 fps=4.5 q=31.0 size=    7424kB time=00:00:01.71 bitrate=35426.4kbits/s speed=0.0501x    frame=  159 fps=4.6 q=31.0 size=    7424kB time=00:00:01.76 bitrate=34423.8kbits/s speed=0.0507x    frame=  162 fps=4.6 q=31.0 size=    7680kB time=00:00:01.81 bitrate=34630.8kbits/s speed=0.0511x    frame=  165 fps=4.6 q=31.0 size=    7936kB time=00:00:01.86 bitrate=34826.6kbits/s speed=0.0517x    frame=  168 fps=4.6 q=31.0 size=    8192kB time=00:00:01.91 bitrate=35012.3kbits/s speed=0.0522x    frame=  171 fps=4.6 q=31.0 size=    8448kB time=00:00:01.96 bitrate=35188.5kbits/s speed=0.0526x    frame=  174 fps=4.5 q=31.0 size=    8704kB time=00:00:02.01 bitrate=35355.9kbits/s speed=0.0526x    frame=  175 fps=4.5 q=31.0 size=    8704kB time=00:00:02.03 bitrate=35066.2kbits/s speed=0.0521x    frame=  178 fps=4.5 q=31.0 size=    8960kB time=00:00:02.08 bitrate=35231.2kbits/s speed=0.0526x    frame=  181 fps=4.5 q=31.0 size=    9216kB time=00:00:02.13 bitrate=35388.5kbits/s speed=0.0529x    frame=  182 fps=4.5 q=31.0 size=    9216kB time=00:00:02.15 bitrate=35114.2kbits/s speed=0.0526x    frame=  185 fps=4.4 q=31.0 size=    9472kB time=00:00:02.20 bitrate=35269.4kbits/s speed=0.0528x    frame=  188 fps=4.4 q=31.0 size=    9728kB time=00:00:02.25 bitrate=35417.7kbits/s speed=0.0532x    frame=  191 fps=4.5 q=31.0 size=    9728kB time=00:00:02.30 bitrate=34647.7kbits/s speed=0.0536x    frame=  194 fps=4.5 q=31.0 size=    9984kB time=00:00:02.35 bitrate=34803.0kbits/s speed=0.054x    frame=  197 fps=4.5 q=31.0 size=   10240kB time=00:00:02.40 bitrate=34951.7kbits/s speed=0.0544x    frame=  200 fps=4.5 q=31.0 size=   10496kB time=00:00:02.45 bitrate=35094.4kbits/s speed=0.0547x    frame=  203 fps=4.5 q=31.0 size=   10752kB time=00:00:02.50 bitrate=35231.4kbits/s speed=0.0551x    frame=  206 fps=4.5 q=31.0 size=   11008kB time=00:00:02.55 bitrate=35363.0kbits/s speed=0.0555x    frame=  209 fps=4.5 q=31.0 size=   11264kB time=00:00:02.60 bitrate=35489.5kbits/s speed=0.0558x    frame=  211 fps=4.5 q=31.0 size=   11264kB time=00:00:02.63 bitrate=35040.3kbits/s speed=0.0559x    frame=  214 fps=4.5 q=31.0 size=   11520kB time=00:00:02.68 bitrate=35168.9kbits/s speed=0.0562x    frame=  217 fps=4.5 q=31.0 size=   11776kB time=00:00:02.73 bitrate=35292.8kbits/s speed=0.0566x    frame=  220 fps=4.5 q=31.0 size=   12032kB time=00:00:02.78 bitrate=35412.3kbits/s speed=0.0568x    frame=  223 fps=4.5 q=31.0 size=   12032kB time=00:00:02.83 bitrate=34787.4kbits/s speed=0.0571x    frame=  226 fps=4.5 q=31.0 size=   12288kB time=00:00:02.88 bitrate=34911.4kbits/s speed=0.0574x    frame=  229 fps=4.5 q=31.0 size=   12544kB time=00:00:02.93 bitrate=35031.3kbits/s speed=0.0576x    frame=  232 fps=4.5 q=31.0 size=   12800kB time=00:00:02.98 bitrate=35147.1kbits/s speed=0.0579x    frame=  235 fps=4.5 q=31.0 size=   13056kB time=00:00:03.03 bitrate=35259.2kbits/s speed=0.0582x    frame=  237 fps=4.5 q=31.0 size=   13312kB time=00:00:03.06 bitrate=35559.7kbits/s speed=0.0582x    frame=  240 fps=4.5 q=31.0 size=   13568kB time=00:00:03.11 bitrate=35662.1kbits/s speed=0.0585x    frame=  243 fps=4.5 q=31.0 size=   13568kB time=00:00:03.16 bitrate=35099.1kbits/s speed=0.0587x    frame=  246 fps=4.5 q=31.0 size=   13824kB time=00:00:03.21 bitrate=35205.4kbits/s speed=0.0589x    frame=  249 fps=4.5 q=31.0 size=   14080kB time=00:00:03.26 bitrate=35308.6kbits/s speed=0.0591x    frame=  252 fps=4.5 q=31.0 size=   14336kB time=00:00:03.31 bitrate=35408.6kbits/s speed=0.0594x    frame=  255 fps=4.5 q=31.0 size=   14336kB time=00:00:03.36 bitrate=34882.7kbits/s speed=0.0595x    frame=  258 fps=4.5 q=31.0 size=   14592kB time=00:00:03.41 bitrate=34986.0kbits/s speed=0.0597x    frame=  259 fps=4.5 q=31.0 size=   14848kB time=00:00:03.43 bitrate=35427.0kbits/s speed=0.0592x    frame=  262 fps=4.5 q=31.0 size=   15104kB time=00:00:03.48 bitrate=35520.6kbits/s speed=0.0594x    frame=  265 fps=4.5 q=31.0 size=   15360kB time=00:00:03.53 bitrate=35611.4kbits/s speed=0.0596x    frame=  268 fps=4.5 q=31.0 size=   15616kB time=00:00:03.58 bitrate=35699.8kbits/s speed=0.0598x    frame=  271 fps=4.5 q=31.0 size=   15616kB time=00:00:03.63 bitrate=35208.5kbits/s speed=0.06x    frame=  274 fps=4.5 q=31.0 size=   15872kB time=00:00:03.68 bitrate=35299.9kbits/s speed=0.0601x    frame=  277 fps=4.5 q=31.0 size=   16128kB time=00:00:03.73 bitrate=35388.9kbits/s speed=0.0604x    frame=  279 fps=4.5 q=31.0 size=   16128kB time=00:00:03.76 bitrate=35075.7kbits/s speed=0.0604x    frame=  282 fps=4.5 q=31.0 size=   16384kB time=00:00:03.81 bitrate=35165.7kbits/s speed=0.0605x    frame=  285 fps=4.5 q=31.0 size=   16640kB time=00:00:03.86 bitrate=35253.3kbits/s speed=0.0607x    frame=  288 fps=4.5 q=31.0 size=   16896kB time=00:00:03.91 bitrate=35338.7kbits/s speed=0.0609x    frame=  291 fps=4.5 q=31.0 size=   17152kB time=00:00:03.96 bitrate=35422.0kbits/s speed=0.0611x    frame=  294 fps=4.5 q=31.0 size=   17408kB time=00:00:04.01 bitrate=35503.1kbits/s speed=0.0613x    frame=  296 fps=4.4 q=29.0 size=   17664kB time=00:00:04.05 bitrate=35728.8kbits/s speed=0.0605x    frame=  297 fps=4.4 q=31.0 size=   17664kB time=00:00:04.06 bitrate=35582.3kbits/s speed=0.0601x    frame=  300 fps=4.4 q=31.0 size=   17664kB time=00:00:04.11 bitrate=35150.2kbits/s speed=0.0602x    frame=  300 fps=4.0 q=-1.0 Lsize=   21998kB time=00:00:04.95 bitrate=36404.9kbits/s speed=0.0652x    
video:21993kB audio:0kB subtitle:0kB other streams:0kB global headers:0kB muxing overhead: 0.020780%
[libx264 @ 0x55dc41899900] frame I:2     Avg QP:24.68  size:795160
[libx264 @ 0x55dc41899900] frame P:76    Avg QP:26.68  size:189801
[libx264 @ 0x55dc41899900] frame B:222   Avg QP:31.81  size: 29303
[libx264 @ 0x55dc41899900] consecutive B-frames:  1.3%  0.0%  0.0% 98.7%
[libx264 @ 0x55dc41899900] mb I  I16..4:  9.2% 73.0% 17.8%
[libx264 @ 0x55dc41899900] mb P  I16..4:  0.3%  1.8%  0.4%  P16..4: 35.3% 18.8% 11.8%  0.0%  0.0%    skip:31.7%
[libx264 @ 0x55dc41899900] mb B  I16..4:  0.0%  0.0%  0.0%  B16..8: 31.5%  2.0%  0.8%  direct: 1.9%  skip:63.9%  L0:37.4% L1:55.2% BI: 7.4%
[libx264 @ 0x55dc41899900] 8x8 transform intra:73.5% inter:74.1%
[libx264 @ 0x55dc41899900] coded y,uvDC,uvAC intra: 83.0% 83.1% 55.6% inter: 11.4% 8.7% 0.7%
[libx264 @ 0x55dc41899900] i16 v,h,dc,p: 63% 20% 13%  5%
[libx264 @ 0x55dc41899900] i8 v,h,dc,ddl,ddr,vr,hd,vl,hu: 11% 11% 12% 12%  9%  9%  9% 13% 15%
[libx264 @ 0x55dc41899900] i4 v,h,dc,ddl,ddr,vr,hd,vl,hu: 15% 13% 11% 11% 11% 10%  9% 11% 10%
[libx264 @ 0x55dc41899900] i8c dc,h,v,p: 62% 16% 14%  8%
[libx264 @ 0x55dc41899900] Weighted P-Frames: Y:0.0% UV:0.0%
[libx264 @ 0x55dc41899900] ref P L0: 64.5% 21.7%  8.9%  4.8%
[libx264 @ 0x55dc41899900] ref B L0: 96.0%  2.8%  1.1%
[libx264 @ 0x55dc41899900] ref B L1: 99.1%  0.9%
[libx264 @ 0x55dc41899900] kb/s:36032.68
	Command being timed: "/usr/bin/ffmpeg -i ../.././Samples/Netflix_Boat_4096x2160_60fps_10bit_420.y4m -c:v libx264 -f mov /home/aleksandr/Pract/Samples/Netflix_Boat_4096x2160_60fps_10bit_420.y4m_tc/output_tc2.mov"
	User time (seconds): 184.97
	System time (seconds): 5.80
	Percent of CPU this job got: 245%
	Elapsed (wall clock) time (h:mm:ss or m:ss): 1:17.82
	Average shared text size (kbytes): 0
	Average unshared data size (kbytes): 0
	Average stack size (kbytes): 0
	Average total size (kbytes): 0
	Maximum resident set size (kbytes): 2003828
	Average resident set size (kbytes): 0
	Major (requiring I/O) page faults: 149
	Minor (reclaiming a frame) page faults: 214942
	Voluntary context switches: 24208
	Involuntary context switches: 8596
	Swaps: 0
	File system inputs: 15471704
	File system outputs: 44064
	Socket messages sent: 0
	Socket messages received: 0
	Signals delivered: 0
	Page size (bytes): 4096
	Exit status: 0
